<svg width="40" height="39" viewBox="0 0 40 39" fill="none" xmlns="http://www.w3.org/2000/svg">
<path d="M25 35.75V29.25C25.2318 27.2143 24.6332 25.1715 23.3333 23.5625C28.3333 23.5625 33.3333 20.3125 33.3333 14.625C33.4667 12.5938 32.8833 10.595 31.6666 8.9375C32.1333 7.06875 32.1333 5.11875 31.6666 3.25C31.6666 3.25 30 3.25 26.6666 5.6875C22.2666 4.875 17.7333 4.875 13.3333 5.6875C9.99998 3.25 8.33331 3.25 8.33331 3.25C7.83331 5.11875 7.83331 7.06875 8.33331 8.9375C7.11977 10.5883 6.53077 12.5983 6.66665 14.625C6.66665 20.3125 11.6666 23.5625 16.6666 23.5625C16.0166 24.3588 15.5333 25.2687 15.25 26.2437C14.9666 27.2187 14.8833 28.2425 15 29.25V35.75" stroke="#9CA3AF" stroke-width="2" stroke-linecap="round" stroke-linejoin="round"/>
<path d="M15 29.25C7.48337 32.5 6.66671 26 3.33337 26" stroke="#9CA3AF" stroke-width="2" stroke-linecap="round" stroke-linejoin="round"/>
</svg>
